<svg aria-hidden="true" style="width:0;height:0;position:absolute;overflow:hidden" xmlns="http://www.w3.org/2000/svg"><defs><symbol id="icon-close" viewBox="0 0 32 32"><path d="M9.287 7.779 7.779 9.287 14.492 16l-6.713 6.713 1.508 1.508L16 17.508l6.713 6.713 1.508-1.508L17.508 16l6.713-6.713-1.508-1.508L16 14.492z"/></symbol><symbol id="icon-heart" viewBox="0 0 34 32"><path d="m17.231 31.705-2.412-2.412C5.859 21.367.001 16.025.001 9.478.001 4.136 4.136.001 9.478.001c2.929 0 5.858 1.378 7.754 3.618 1.895-2.24 4.825-3.618 7.754-3.618 5.342 0 9.477 4.135 9.477 9.477 0 6.548-5.858 11.889-14.818 19.815l-2.412 2.412z"/></symbol><symbol id="icon-logo" viewBox="0 0 32 32"><path d="M5.573 1.333a4.26 4.26 0 0 0-4.24 4.239v20.854a4.26 4.26 0 0 0 4.239 4.24h20.854a4.26 4.26 0 0 0 4.24-4.239V5.573a4.26 4.26 0 0 0-4.239-4.24H9.333zm0 2.667H8v4H4V5.573C4 4.688 4.688 4 5.573 4zm5.094 0h10.667v10.667H10.667V9.334zM24 4h2.427C27.312 4 28 4.688 28 5.573V8h-4zM4 10.667h4v4H4zm20 0h4v4h-4zM4 17.333h4v4H4zm6.667 0h10.667V28H10.667v-5.333zm13.333 0h4v4h-4zM4 24h4v4H5.573A1.553 1.553 0 0 1 4 26.427zm20 0h4v2.427c0 .885-.688 1.573-1.573 1.573H24z"/></symbol><symbol id="icon-search" viewBox="0 0 32 32"><path d="M14.667 2.667c-3.888 0-6.973 1.507-8.995 3.781s-3.005 5.253-3.005 8.219c0 2.963.984 5.944 3.005 8.219s5.107 3.781 8.995 3.781c3.099 0 5.501-1.128 7.448-2.667l4.941 4.944a1.335 1.335 0 0 0 1.888-1.888l-4.872-4.869c1.669-2.179 2.595-4.827 2.595-7.52 0-2.963-.984-5.944-3.005-8.219s-5.107-3.781-8.995-3.781zm0 2.666c3.221 0 5.472 1.16 7.005 2.885S24 12.298 24 14.666c0 2.371-.795 4.723-2.328 6.448-1.656 2.053-4.787 2.856-7.005 2.885-3.221 0-5.472-1.16-7.005-2.885s-2.328-4.08-2.328-6.448c0-2.371.795-4.723 2.328-6.448s3.784-2.885 7.005-2.885z"/></symbol><symbol id="icon-arrow-left" viewBox="0 0 32 32"><path stroke-linejoin="round" stroke-linecap="round" stroke-width="2.667" d="M25.333 16H6.666"/><path fill="transparent" stroke-linejoin="round" stroke-linecap="round" stroke-width="2.667" d="m16 25.334-9.333-9.333L16 6.668"/></symbol><symbol id="icon-arrow-right" viewBox="0 0 32 32"><path stroke-linejoin="round" stroke-linecap="round" stroke-width="2.667" d="M6.667 16h18.667"/><path fill="transparent" stroke-linejoin="round" stroke-linecap="round" stroke-width="2.667" d="m16 25.334 9.333-9.333L16 6.668"/></symbol><symbol id="icon-play" viewBox="0 0 32 32" fill="#000"><path d="M30.662 5.003C26.174 4.358 21.214 4 16 4S5.826 4.358 1.338 5.003C.478 8.369 0 12.089 0 16s.477 7.63 1.338 10.997C5.827 27.642 10.786 28 16 28s10.174-.358 14.662-1.003C31.522 23.631 32 19.911 32 16s-.477-7.63-1.338-10.997zM12 22V10l10 6-10 6z"/></symbol><symbol id="icon-circle-right" viewBox="0 0 32 32"><path d="M16 0C7.163 0 0 7.163 0 16s7.163 16 16 16 16-7.163 16-16S24.837 0 16 0zm0 29C8.82 29 3 23.18 3 16S8.82 3 16 3s13 5.82 13 13-5.82 13-13 13z"/><path d="m11.086 22.086 2.829 2.829 8.914-8.914-8.914-8.914-2.828 2.828 6.086 6.086z"/></symbol><symbol id="icon-circle-left" viewBox="0 0 32 32"><path d="M16 32c8.837 0 16-7.163 16-16S24.837 0 16 0 0 7.163 0 16s7.163 16 16 16zm0-29c7.18 0 13 5.82 13 13s-5.82 13-13 13S3 23.18 3 16 8.82 3 16 3z"/><path d="m20.914 9.914-2.829-2.829-8.914 8.914 8.914 8.914 2.828-2.828-6.086-6.086z"/></symbol><symbol id="icon-circle-up" viewBox="0 0 32 32"><path d="M0 16c0 8.837 7.163 16 16 16s16-7.163 16-16S24.837 0 16 0 0 7.163 0 16zm29 0c0 7.18-5.82 13-13 13S3 23.18 3 16 8.82 3 16 3s13 5.82 13 13z"/><path d="m22.086 20.914 2.829-2.829-8.914-8.914-8.914 8.914 2.828 2.828 6.086-6.086z"/></symbol></defs></svg>