<!-- Generated by IcoMoon.io -->
<svg version="1.1" xmlns="http://www.w3.org/2000/svg" width="32" height="32" viewBox="0 0 32 32">
<title>logo</title>
<path d="M5.573 1.333c-2.337 0.011-4.229 1.903-4.24 4.239v20.854c0.011 2.337 1.903 4.229 4.239 4.24h20.854c2.337-0.011 4.229-1.903 4.24-4.239v-20.854c-0.011-2.337-1.903-4.229-4.239-4.24h-17.094zM5.573 4h2.427v4h-4v-2.427c0-0.885 0.688-1.573 1.573-1.573zM10.667 4h10.667v10.667h-10.667v-5.333zM24 4h2.427c0.885 0 1.573 0.688 1.573 1.573v2.427h-4zM4 10.667h4v4h-4zM24 10.667h4v4h-4zM4 17.333h4v4h-4zM10.667 17.333h10.667v10.667h-10.667v-5.333zM24 17.333h4v4h-4zM4 24h4v4h-2.427c-0.885 0-1.573-0.688-1.573-1.573zM24 24h4v2.427c0 0.885-0.688 1.573-1.573 1.573h-2.427z"></path>
</svg>
