<!-- Generated by IcoMoon.io -->
<svg version="1.1" xmlns="http://www.w3.org/2000/svg" width="32" height="32" viewBox="0 0 32 32">
<title>search</title>
<path d="M14.667 2.667c-3.888 0-6.973 1.507-8.995 3.781s-3.005 5.253-3.005 8.219c0 2.963 0.984 5.944 3.005 8.219s5.107 3.781 8.995 3.781c3.099 0 5.501-1.128 7.448-2.667l4.941 4.944c0.242 0.242 0.575 0.391 0.944 0.391 0.737 0 1.335-0.598 1.335-1.335 0-0.369-0.149-0.702-0.391-0.944v0l-4.872-4.869c1.669-2.179 2.595-4.827 2.595-7.52 0-2.963-0.984-5.944-3.005-8.219s-5.107-3.781-8.995-3.781zM14.667 5.333c3.221 0 5.472 1.16 7.005 2.885s2.328 4.080 2.328 6.448c0 2.371-0.795 4.723-2.328 6.448-1.656 2.053-4.787 2.856-7.005 2.885-3.221 0-5.472-1.16-7.005-2.885s-2.328-4.080-2.328-6.448c0-2.371 0.795-4.723 2.328-6.448s3.784-2.885 7.005-2.885z"></path>
</svg>
