<svg aria-hidden="true" style="position: absolute; width: 0; height: 0; overflow: hidden;" version="1.1" xmlns="http://www.w3.org/2000/svg" xmlns:xlink="http://www.w3.org/1999/xlink">
<defs>
<symbol id="icon-close" viewBox="0 0 32 32">
<path d="M9.287 7.779l-1.508 1.508 6.713 6.713-6.713 6.713 1.508 1.508 6.713-6.713 6.713 6.713 1.508-1.508-6.713-6.713 6.713-6.713-1.508-1.508-6.713 6.713z"></path>
</symbol>
<symbol id="icon-heart" viewBox="0 0 34 32">
<path d="M17.231 31.705l-2.412-2.412c-8.96-7.926-14.818-13.268-14.818-19.815 0-5.342 4.135-9.477 9.477-9.477 2.929 0 5.858 1.378 7.754 3.618 1.895-2.24 4.825-3.618 7.754-3.618 5.342 0 9.477 4.135 9.477 9.477 0 6.548-5.858 11.889-14.818 19.815l-2.412 2.412z"></path>
</symbol>
<symbol id="icon-logo" viewBox="0 0 32 32">
<path d="M5.573 1.333c-2.337 0.011-4.229 1.903-4.24 4.239v20.854c0.011 2.337 1.903 4.229 4.239 4.24h20.854c2.337-0.011 4.229-1.903 4.24-4.239v-20.854c-0.011-2.337-1.903-4.229-4.239-4.24h-17.094zM5.573 4h2.427v4h-4v-2.427c0-0.885 0.688-1.573 1.573-1.573zM10.667 4h10.667v10.667h-10.667v-5.333zM24 4h2.427c0.885 0 1.573 0.688 1.573 1.573v2.427h-4zM4 10.667h4v4h-4zM24 10.667h4v4h-4zM4 17.333h4v4h-4zM10.667 17.333h10.667v10.667h-10.667v-5.333zM24 17.333h4v4h-4zM4 24h4v4h-2.427c-0.885 0-1.573-0.688-1.573-1.573zM24 24h4v2.427c0 0.885-0.688 1.573-1.573 1.573h-2.427z"></path>
</symbol>
<symbol id="icon-search" viewBox="0 0 32 32">
<path d="M14.667 2.667c-3.888 0-6.973 1.507-8.995 3.781s-3.005 5.253-3.005 8.219c0 2.963 0.984 5.944 3.005 8.219s5.107 3.781 8.995 3.781c3.099 0 5.501-1.128 7.448-2.667l4.941 4.944c0.242 0.242 0.575 0.391 0.944 0.391 0.737 0 1.335-0.598 1.335-1.335 0-0.369-0.149-0.702-0.391-0.944v0l-4.872-4.869c1.669-2.179 2.595-4.827 2.595-7.52 0-2.963-0.984-5.944-3.005-8.219s-5.107-3.781-8.995-3.781zM14.667 5.333c3.221 0 5.472 1.16 7.005 2.885s2.328 4.080 2.328 6.448c0 2.371-0.795 4.723-2.328 6.448-1.656 2.053-4.787 2.856-7.005 2.885-3.221 0-5.472-1.16-7.005-2.885s-2.328-4.080-2.328-6.448c0-2.371 0.795-4.723 2.328-6.448s3.784-2.885 7.005-2.885z"></path>
</symbol>
</defs>
</svg>
